<?xml version="1.0" encoding="UTF-8"?>
<svg width="128px" height="128px" viewBox="0 0 128 128" version="1.1" xmlns="http://www.w3.org/2000/svg" xmlns:xlink="http://www.w3.org/1999/xlink">
    <!-- Generator: Sketch 64 (93537) - https://sketch.com -->
    <title>expired</title>
    <desc>Created with Sketch.</desc>
    <g id="pc" stroke="none" stroke-width="1" fill="none" fill-rule="evenodd">
        <g id="Payment-Link-Expired-Page" transform="translate(-311.000000, -356.000000)" fill-rule="nonzero">
            <g id="expired-2" transform="translate(311.000000, 356.000000)">
                <g id="expired" transform="translate(13.000000, 1.000000)">
                    <path d="M35.0625005,0 L66.9375004,0 L66.9375002,0 C68.6979092,0 70.1250002,1.4214951 70.1250002,3.17500047 C70.1250002,3.17500047 70.1250002,3.17500047 70.1250002,3.17500047 L70.1250002,15.8750004 L70.1250002,15.8750004 C70.1250002,17.6285058 68.6979092,19.0500004 66.9375002,19.0500004 C66.9375002,19.0500004 66.9375002,19.0500004 66.9375002,19.0500004 L35.0625003,19.0500004 L35.0625002,19.0500004 C33.3020913,19.0500004 31.8750002,17.6285058 31.8750002,15.8750004 C31.8750002,15.8750004 31.8750002,15.8750004 31.8750002,15.8750004 L31.8750002,3.17500047 L31.8750002,3.17499999 C31.8750002,1.42149462 33.3020913,0 35.0625002,0 C35.0625002,0 35.0625002,0 35.0625002,0 L35.0625005,0 Z M95.6250003,6.3499995 L95.625,6.3499995 C99.1458179,6.3499995 102,9.1929897 102,12.7000004 C102,12.7000004 102,12.7000004 102,12.7000004 L102,120.65 L102,120.65 C102,124.157011 99.1458179,127 95.625,127 C95.625,127 95.625,127 95.625,127 L6.37500026,127 L6.37499998,127 C2.85418212,127 0,124.157011 0,120.65 C0,120.65 0,120.65 0,120.65 L0,12.7000004 L0,12.6999995 C0,9.19298874 2.85418212,6.3499995 6.37499998,6.3499995 L22.3124999,6.3499995 L22.3124999,15.8749995 L9.56249997,15.8749995 L9.56249997,117.474999 L92.4374997,117.474999 L92.4374997,15.8749995 L79.6874998,15.8749995 L79.6874998,6.3499995 L95.6249997,6.3499995 L95.6250003,6.3499995 Z" id="形状" fill="#0A2749"></path>
                    <path d="M42.7125004,90.4875001 L42.7125004,90.4875013 C42.7125004,86.1037441 46.2802343,82.5500014 50.6812504,82.5500014 C55.0822665,82.5500014 58.6500004,86.1037441 58.6500004,90.4875013 C58.6500004,90.4875013 58.6500004,90.4875013 58.6500004,90.4875013 L58.6500004,90.4875013 C58.6500004,94.8712585 55.0822665,98.4250013 50.6812504,98.4250013 C46.2802343,98.4250013 42.7125004,94.8712585 42.7125004,90.4875013 L42.7125004,90.4875001 Z" id="路径" fill="#F36A6A"></path>
                    <path d="M46.1295004,76.2000002 C45.1286254,76.2000002 44.3062504,75.1268502 44.3062504,73.8187502 L44.3062504,40.4812503 C44.3062504,39.1731503 45.1286254,38.1000003 46.1295004,38.1000003 L55.2330004,38.1000003 C56.2338754,38.1000003 57.0562504,39.1731503 57.0562504,40.4812503 L57.0562504,73.8187502 C57.0562504,75.1268502 56.2338754,76.2000002 55.2330004,76.2000002 L46.1295004,76.2000002 Z" id="路径" fill="#F36A6A"></path>
                </g>
            </g>
        </g>
    </g>
</svg>