<?xml version="1.0" encoding="UTF-8"?>
<svg width="32px" height="32px" viewBox="0 0 32 32" version="1.1" xmlns="http://www.w3.org/2000/svg" xmlns:xlink="http://www.w3.org/1999/xlink">
    <title>icon-預約記錄</title>
    <g id="会员登记" stroke="none" stroke-width="1" fill="none" fill-rule="evenodd">
        <g id="(mobile)-Registration-Form-Temp-Member-wrong" transform="translate(-40.000000, -518.000000)" fill="#7383A1" fill-rule="nonzero">
            <g id="icon-預約記錄" transform="translate(40.000000, 518.000000)">
                <path d="M5.19999993,6.39999891 C4.53855993,6.39999891 3.99999993,6.93855879 3.99999993,7.59999864 L3.99999993,26.7999943 C3.99999993,27.4623941 4.53855993,27.999994 5.19999993,27.999994 L26.7999998,27.999994 C27.4623998,27.999994 27.9999999,27.4623941 27.9999999,26.7999943 L27.9999999,7.59999864 C27.9999999,6.93855879 27.4623998,6.39999891 26.7999998,6.39999891 L5.19999993,6.39999891 Z M26.7999998,30.3999935 L5.19999993,30.3999935 L5.19999998,30.3999935 C3.21287199,30.3973493 1.60264,28.7871218 1.6,26.7999943 L1.6,7.59999864 L1.6,7.59997505 C1.60265723,5.6128475 3.21289602,4.00261586 5.20003001,4.00000586 L26.8000299,4.00000586 L26.80003,4.00000586 C28.787149,4.00266313 30.39736,5.6128865 30.4,7.60000505 L30.4,26.8000007 L30.4,26.8000242 C30.3973428,28.7871517 28.787104,30.3973834 26.79997,30.3999935 L26.7999998,30.3999935 Z M10.0748799,8.79999837 L9.92511991,8.79999837 L9.92511989,8.79999837 C9.30476489,8.79841805 8.80210889,8.29619348 8.79999989,7.67583862 L8.79999989,2.72511974 C8.79999989,2.10591989 9.30591989,1.6 9.92319989,1.6 L10.0739199,1.6 C10.6940799,1.6 11.1999999,2.10591989 11.1999999,2.72511974 L11.1999999,7.67679862 L11.1999999,7.67679456 C11.1973727,8.29602742 10.6960389,8.79736631 10.0768029,8.79999837 L10.0748799,8.79999837 Z M22.0748798,8.79999837 L21.9251199,8.79999837 L21.9251198,8.79999837 C21.3047648,8.79841805 20.8021088,8.29619348 20.7999998,7.67583862 L20.7999998,2.72511974 C20.7999998,2.10591989 21.3059198,1.6 21.9231998,1.6 L22.0739198,1.6 C22.6931198,1.6 23.1980799,2.10591989 23.1980799,2.72511974 L23.1980799,7.67679862 L23.1980799,7.67678847 C23.1954645,8.29527733 22.6952949,8.79631322 22.0768089,8.79999837 L22.0748798,8.79999837 Z M9.99999991,21.9999954 L7.59999992,21.9999954 C6.93951992,21.9999954 6.39999992,21.4595155 6.39999992,20.7999956 C6.39999992,20.1395158 6.94047992,19.5999959 7.59999992,19.5999959 L9.99999991,19.5999959 C10.6604799,19.5999959 11.1999999,20.1404758 11.1999999,20.7999956 C11.1999999,21.4604755 10.6595199,21.9999954 9.99999991,21.9999954 Z M17.1999999,21.9999954 L14.7999999,21.9999954 C14.1395199,21.9999954 13.5999999,21.4595155 13.5999999,20.7999956 C13.5999999,20.1395158 14.1404799,19.5999959 14.7999999,19.5999959 L17.1999999,19.5999959 C17.8604799,19.5999959 18.3999999,20.1404758 18.3999999,20.7999956 C18.3999999,21.4604755 17.8595199,21.9999954 17.1999999,21.9999954 Z M9.99999991,15.9999967 L7.59999992,15.9999967 C6.93951992,15.9999967 6.39999992,15.4595169 6.39999992,14.799997 C6.39999992,14.1395172 6.94047992,13.5999973 7.59999992,13.5999973 L9.99999991,13.5999973 C10.6604799,13.5999973 11.1999999,14.1404772 11.1999999,14.799997 C11.1999999,15.4604769 10.6595199,15.9999967 9.99999991,15.9999967 Z M24.3999998,15.9999967 L21.9999999,15.9999967 C21.3395199,15.9999967 20.7999999,15.4595169 20.7999999,14.799997 C20.7999999,14.1395172 21.3404799,13.5999973 21.9999999,13.5999973 L24.3999998,13.5999973 C25.0604798,13.5999973 25.5999998,14.1404772 25.5999998,14.799997 C25.5999998,15.4604769 25.0595198,15.9999967 24.3999998,15.9999967 Z M17.1999999,15.9999967 L14.7999999,15.9999967 C14.1395199,15.9999967 13.5999999,15.4595169 13.5999999,14.799997 C13.5999999,14.1395172 14.1404799,13.5999973 14.7999999,13.5999973 L17.1999999,13.5999973 C17.8604799,13.5999973 18.3999999,14.1404772 18.3999999,14.799997 C18.3999999,15.4604769 17.8595199,15.9999967 17.1999999,15.9999967 Z" id="形状"></path>
            </g>
        </g>
    </g>
</svg>