<?xml version="1.0" encoding="UTF-8"?>
<svg width="28px" height="28px" viewBox="0 0 28 28" version="1.1" xmlns="http://www.w3.org/2000/svg" xmlns:xlink="http://www.w3.org/1999/xlink">
    <title>地址-icon</title>
    <g id="会员登记" stroke="none" stroke-width="1" fill="none" fill-rule="evenodd">
        <g id="(mobile)-Registration-Form-Temp-Member-wrong" transform="translate(-60.000000, -719.000000)" fill="#7383A1" fill-rule="nonzero">
            <g id="地址-icon" transform="translate(60.000000, 719.000000)">
                <g id="地址" transform="translate(0.875000, 0.000000)">
                    <path d="M13.1069219,24.1737078 C12.7589586,24.1737078 12.3804414,24.024338 11.8797138,23.690803 L11.879714,23.6908031 C11.4375541,23.3843531 11.0181935,23.0462527 10.6249243,22.6791625 C9.64426143,21.7859149 8.57363753,20.6176902 7.60740124,19.3836899 C6.10224637,17.4614029 3.57610749,13.7398786 3.57610749,10.4219295 C3.57610749,7.59195742 4.48717769,4.99030595 6.13830735,3.09051468 L6.13830716,3.0905149 C6.97161711,2.12765557 8.00272105,1.35577342 9.16135365,0.827477887 C10.3673457,0.278373733 11.695548,3.09643856e-06 13.1069246,3.09643856e-06 C14.5182986,3.09643856e-06 15.846088,0.278373733 17.0533433,0.827477887 L17.053343,0.827477764 C18.212003,1.35632565 19.2434132,2.12811209 20.0776473,3.09051204 C21.7313227,4.98861073 22.6381519,7.59198212 22.6381519,10.4219268 C22.6381519,13.7381807 20.1111735,17.4575913 18.6068581,19.3836872 C17.6406218,20.6176848 16.5699979,21.7888791 15.5897726,22.6791598 C15.1204466,23.1064748 14.6986469,23.4472248 14.334559,23.6908005 C13.8376514,24.0243372 13.4587103,24.1737078 13.1077748,24.1737078 L13.1069219,24.1737078 Z M13.1069219,1.73471686 C8.51803373,1.73471686 5.30956906,5.30474836 5.30956906,10.4185277 C5.30956906,12.3891886 6.57157209,15.1737481 8.775202,18.0520913 C9.64426122,19.1855184 10.6211069,20.2875439 11.5334513,21.1498137 C12.3711089,21.9424908 12.8858419,22.2866369 13.1035313,22.4012101 C13.3220693,22.2866366 13.8368013,21.9424935 14.6736112,21.1498137 C15.5846814,20.2841478 16.5649204,19.1859422 17.4318605,18.0520913 C19.6350639,15.1737481 20.8983482,12.3908894 20.8983482,10.4185277 C20.9038576,5.30431086 17.6987632,1.73471686 13.1069219,1.73471686 Z M13.1069219,14.1761174 L13.1069219,14.1761174 C10.5439646,14.1734957 8.46840477,12.0936899 8.471,9.53072984 C8.47361695,6.96777256 10.5534228,4.89221272 13.1163828,4.89480795 C15.6793401,4.8974249 17.7549,6.97723078 17.7523047,9.54019079 C17.7510478,10.7699637 17.2617138,11.9489565 16.3917851,12.8181907 L16.3917851,12.8181907 C15.5218235,13.6909113 14.3391831,14.1797962 13.1069219,14.1761174 L13.1069219,14.1761174 Z M13.1069219,6.62274599 L13.1069219,6.62274599 C11.5017926,6.62251166 10.2003872,7.92353617 10.2001411,9.52867906 C10.1999068,11.1338083 11.5009313,12.4352137 13.1060742,12.4354598 C14.7112034,12.4356941 16.0126088,11.1346696 16.012855,9.52952671 C16.012855,9.52924384 16.012855,9.52896096 16.012855,9.52867808 L16.012855,9.52873934 C16.0110181,7.92461912 14.711116,6.62466565 13.107004,6.62274599 L13.1069219,6.62274599 Z M5.98725735,20.127539 C2.61880421,20.8400168 0.529739283,21.9768373 0.529739283,23.6869612 C0.529739283,26.3463353 6.223617,27.959263 13.3449769,27.959263 C20.4663367,27.959263 26.1602144,26.3467482 26.1602144,23.6869612 C26.1602144,21.9314439 23.928579,20.7428562 20.3237662,20.0337772 L20.3237663,20.0337772 C19.8130965,19.9416738 19.3244522,20.2809891 19.2323501,20.7916594 C19.1402467,21.3023291 19.479562,21.7909734 19.9902323,21.8830755 C22.6907698,22.4054456 24.3037139,23.2592279 24.3037139,23.6869694 C24.3037139,23.7807498 24.1611335,23.9233301 23.7821941,24.2084891 C23.2610982,24.5424497 22.4993961,24.8725903 21.5051544,25.1577504 C19.370696,25.7730511 16.4753751,26.1065878 13.3874144,26.1065878 C10.2994538,26.1065878 7.36169258,25.7730511 5.27052218,25.1577504 C4.2728843,24.8725903 3.5150049,24.5424497 2.99348242,24.2084891 C2.5665913,23.923329 2.42443371,23.7807476 2.42443371,23.6869694 C2.42443371,23.3080283 3.89479089,22.5017723 6.36278595,21.9768564 L6.36278594,21.9768564 C6.85690722,21.8869638 7.18460057,21.4135253 7.09470789,20.919404 C7.0895587,20.8910999 7.08306925,20.8630562 7.07526148,20.835367 C7.03282694,20.3138473 6.51215458,19.9837039 5.98723873,20.1262853 L5.98725735,20.127539 Z" id="形状"></path>
                </g>
            </g>
        </g>
    </g>
</svg>