<?xml version="1.0" encoding="UTF-8"?>
<svg width="32px" height="32px" viewBox="0 0 32 32" version="1.1" xmlns="http://www.w3.org/2000/svg" xmlns:xlink="http://www.w3.org/1999/xlink">
    <title>電話-icon</title>
    <g id="会员登记" stroke="none" stroke-width="1" fill="none" fill-rule="evenodd">
        <g id="(mobile)-Registration-Form-Temp-Member-wrong" transform="translate(-40.000000, -2132.000000)">
            <rect fill="#FFFFFF" x="0" y="0" width="750" height="4810"></rect>
            <g id="编组" transform="translate(40.000000, 2132.000000)" fill="#7383A1" fill-rule="nonzero">
                <g id="電話咨詢" transform="translate(2.000000, 2.000000)">
                    <path d="M19.4740227,27.9229231 C14.644017,27.9229231 9.2820108,25.27692 4.99100581,20.6499147 C2.30300268,17.7589113 0.238000277,12.5019052 0.0700000815,8.15490011 C-0.098000114,3.63989486 1.722002,0.699891439 5.0680059,0.125890771 L5.06800586,0.125890779 C6.80027545,-0.224593613 8.59844356,0.219809013 9.96801156,1.33689219 L9.9680113,1.33689196 C11.3329773,2.5263328 12.101786,4.25871177 12.0680137,6.06889747 C12.0680137,7.41289903 11.3680129,9.03690092 9.85601117,11.0179032 L9.85601034,11.0179015 C11.3881863,14.2229208 13.9933433,16.7909121 17.2200189,18.2769099 C19.1870212,16.4639078 20.9930233,15.6029068 22.6590252,15.6309069 L22.6590255,15.6309069 C24.0997748,15.6919983 25.4496225,16.3517026 26.3830298,17.450909 L26.38303,17.4509091 C27.7906824,18.9498187 28.2636423,21.099636 27.6150314,23.0509157 C26.8450305,25.4099184 24.668028,27.1529204 21.7840246,27.6989211 L21.784025,27.698921 C21.023053,27.8479293 20.2494482,27.9229231 19.4740251,27.9229231 L19.4740227,27.9229231 Z M6.30000733,2.00872552 L6.30000715,2.00872552 C6.00375368,2.01061635 5.70836974,2.04109273 5.41800613,2.09989307 C2.31700252,2.6458937 1.98800213,6.08989771 2.06500222,8.09190004 C2.20500239,11.9489045 4.09500459,16.7719101 6.45400733,19.2919131 C10.9130125,24.1009187 16.8000194,26.6349216 21.4130247,25.7529206 C23.5690272,25.3399201 25.1790291,24.1009187 25.7180297,22.4419167 L25.7180297,22.4419169 C26.1445489,21.1799358 25.8403789,19.7856052 24.9270288,18.8159127 L24.9270289,18.8159128 C24.3591122,18.1104378 23.5208831,17.6760818 22.6170262,17.6189114 L22.5680261,17.6189114 C21.3220247,17.6189114 19.8240229,18.4799124 18.1090209,20.1809144 L18.1090209,20.1809144 C17.8103913,20.4737225 17.3619697,20.5517097 16.9820196,20.3769146 C12.5230144,18.2769122 9.43601084,15.2249086 7.81900896,11.276904 L7.81900895,11.276904 C7.68611735,10.943195 7.74221558,10.5638629 7.96600912,10.2829028 C9.73701118,8.02890021 10.1150116,6.78289876 10.1150116,6.08289794 L10.1150117,6.08289459 C10.1463515,4.85959395 9.63359161,3.68537813 8.71500734,2.87689086 L8.71500741,2.87689091 C8.03951482,2.30840549 7.18283961,2.00050083 6.30000733,2.00872552 L6.30000733,2.00872552 Z" id="形状"></path>
                    <path d="M22.2390259,11.9000139 L22.2390259,11.9000139 C21.7200847,11.898215 21.2885697,11.5001274 21.2450248,10.9830128 C21.1330246,9.450011 20.6990241,8.36500973 19.9500233,7.75600903 C19.2010224,7.14700832 18.0600211,6.9580081 16.5480193,7.16100833 L16.5480194,7.16100832 C16.0029129,7.2363954 15.4999049,6.85561383 15.4245181,6.31050733 C15.349131,5.76540084 15.7299126,5.26239283 16.2750191,5.18700603 C16.2750191,5.18700603 16.2750191,5.18700603 16.2750191,5.18700603 C18.3750215,4.90000569 20.0130234,5.2500061 21.1750248,6.20900722 C22.3370261,7.16800833 23.0510269,8.72901015 23.2050271,10.8360126 L23.2050271,10.8360127 C23.2457975,11.372927 22.8516361,11.844681 22.3160261,11.9000139 L22.2390259,11.9000139 Z" id="路径"></path>
                    <path d="M26.9850314,10.9900217 L26.9850314,10.9900217 C26.4697187,10.9921764 26.0382037,10.6001643 25.9910302,10.0870117 C25.4590296,4.20000489 22.4910261,1.67300195 16.6320193,2.10000244 L16.6320193,2.10000244 C16.0733831,2.13672952 15.5907462,1.71363754 15.5540181,1.15500134 C15.517291,0.596365147 15.940383,0.113728258 16.4990192,0.0770000899 C23.3800272,-0.385000448 27.3490318,3.0100035 27.9790325,9.87701149 L27.9790325,9.87701176 C28.0275366,10.4238354 27.6235689,10.906445 27.0767424,10.9549501 C27.0765051,10.9549712 27.0762678,10.9549921 27.0760304,10.955013 L26.9850314,10.9900217 Z" id="路径"></path>
                </g>
            </g>
            <g id="電話-icon" transform="translate(40.000000, 2132.000000)" fill="#7383A1" fill-rule="nonzero">
                <g id="電話咨詢" transform="translate(2.000000, 2.000000)">
                    <path d="M19.4740227,27.9229231 C14.644017,27.9229231 9.2820108,25.27692 4.99100581,20.6499147 C2.30300268,17.7589113 0.238000277,12.5019052 0.0700000815,8.15490011 C-0.098000114,3.63989486 1.722002,0.699891439 5.0680059,0.125890771 L5.06800586,0.125890779 C6.80027545,-0.224593613 8.59844356,0.219809013 9.96801156,1.33689219 L9.9680113,1.33689196 C11.3329773,2.5263328 12.101786,4.25871177 12.0680137,6.06889747 C12.0680137,7.41289903 11.3680129,9.03690092 9.85601117,11.0179032 L9.85601034,11.0179015 C11.3881863,14.2229208 13.9933433,16.7909121 17.2200189,18.2769099 C19.1870212,16.4639078 20.9930233,15.6029068 22.6590252,15.6309069 L22.6590255,15.6309069 C24.0997748,15.6919983 25.4496225,16.3517026 26.3830298,17.450909 L26.38303,17.4509091 C27.7906824,18.9498187 28.2636423,21.099636 27.6150314,23.0509157 C26.8450305,25.4099184 24.668028,27.1529204 21.7840246,27.6989211 L21.784025,27.698921 C21.023053,27.8479293 20.2494482,27.9229231 19.4740251,27.9229231 L19.4740227,27.9229231 Z M6.30000733,2.00872552 L6.30000715,2.00872552 C6.00375368,2.01061635 5.70836974,2.04109273 5.41800613,2.09989307 C2.31700252,2.6458937 1.98800213,6.08989771 2.06500222,8.09190004 C2.20500239,11.9489045 4.09500459,16.7719101 6.45400733,19.2919131 C10.9130125,24.1009187 16.8000194,26.6349216 21.4130247,25.7529206 C23.5690272,25.3399201 25.1790291,24.1009187 25.7180297,22.4419167 L25.7180297,22.4419169 C26.1445489,21.1799358 25.8403789,19.7856052 24.9270288,18.8159127 L24.9270289,18.8159128 C24.3591122,18.1104378 23.5208831,17.6760818 22.6170262,17.6189114 L22.5680261,17.6189114 C21.3220247,17.6189114 19.8240229,18.4799124 18.1090209,20.1809144 L18.1090209,20.1809144 C17.8103913,20.4737225 17.3619697,20.5517097 16.9820196,20.3769146 C12.5230144,18.2769122 9.43601084,15.2249086 7.81900896,11.276904 L7.81900895,11.276904 C7.68611735,10.943195 7.74221558,10.5638629 7.96600912,10.2829028 C9.73701118,8.02890021 10.1150116,6.78289876 10.1150116,6.08289794 L10.1150117,6.08289459 C10.1463515,4.85959395 9.63359161,3.68537813 8.71500734,2.87689086 L8.71500741,2.87689091 C8.03951482,2.30840549 7.18283961,2.00050083 6.30000733,2.00872552 L6.30000733,2.00872552 Z" id="形状"></path>
                    <path d="M22.2390259,11.9000139 L22.2390259,11.9000139 C21.7200847,11.898215 21.2885697,11.5001274 21.2450248,10.9830128 C21.1330246,9.450011 20.6990241,8.36500973 19.9500233,7.75600903 C19.2010224,7.14700832 18.0600211,6.9580081 16.5480193,7.16100833 L16.5480194,7.16100832 C16.0029129,7.2363954 15.4999049,6.85561383 15.4245181,6.31050733 C15.349131,5.76540084 15.7299126,5.26239283 16.2750191,5.18700603 C16.2750191,5.18700603 16.2750191,5.18700603 16.2750191,5.18700603 C18.3750215,4.90000569 20.0130234,5.2500061 21.1750248,6.20900722 C22.3370261,7.16800833 23.0510269,8.72901015 23.2050271,10.8360126 L23.2050271,10.8360127 C23.2457975,11.372927 22.8516361,11.844681 22.3160261,11.9000139 L22.2390259,11.9000139 Z" id="路径"></path>
                    <path d="M26.9850314,10.9900217 L26.9850314,10.9900217 C26.4697187,10.9921764 26.0382037,10.6001643 25.9910302,10.0870117 C25.4590296,4.20000489 22.4910261,1.67300195 16.6320193,2.10000244 L16.6320193,2.10000244 C16.0733831,2.13672952 15.5907462,1.71363754 15.5540181,1.15500134 C15.517291,0.596365147 15.940383,0.113728258 16.4990192,0.0770000899 C23.3800272,-0.385000448 27.3490318,3.0100035 27.9790325,9.87701149 L27.9790325,9.87701176 C28.0275366,10.4238354 27.6235689,10.906445 27.0767424,10.9549501 C27.0765051,10.9549712 27.0762678,10.9549921 27.0760304,10.955013 L26.9850314,10.9900217 Z" id="路径"></path>
                </g>
            </g>
        </g>
    </g>
</svg>