<?xml version="1.0" encoding="UTF-8"?>
<svg width="48px" height="48px" viewBox="0 0 48 48" version="1.1" xmlns="http://www.w3.org/2000/svg" xmlns:xlink="http://www.w3.org/1999/xlink">
    <title>icon-扫描</title>
    <g id="会员登记" stroke="none" stroke-width="1" fill="none" fill-rule="evenodd">
        <g id="(mobile)-Registration-Form-Temp-Member" transform="translate(-185.000000, -1032.000000)" fill="#1893FF" fill-rule="nonzero">
            <g id="btn" transform="translate(40.000000, 1016.000000)">
                <g id="形状结合" transform="translate(145.000000, 16.000000)">
                    <path d="M4.83332777,33.583329 L4.83334641,39.9722062 C4.83334611,41.6557806 6.13925084,43.0501418 7.81872074,43.1602947 L8.02778558,43.1666514 L14.4166577,43.1666514 L14.4166577,46.9999822 L8.02778558,46.9999822 C4.25609029,47.0002851 1.15667736,44.0232439 1.00511112,40.2546051 L1,39.9722164 L1,33.583329 L4.83332777,33.583329 Z M46.9999834,33.583329 L46.9999834,39.9722062 C46.9999834,43.7444689 44.0226949,46.8436597 40.2540276,46.9949116 L39.9722034,47 L33.5833312,47 L33.5833312,43.1666692 L39.9722034,43.1666692 C41.6552851,43.1669283 43.0498473,41.8612398 43.1602562,40.1817821 L43.1666451,39.972227 L43.1666451,33.583329 L46.9999834,33.583329 Z M35.3125318,12 C37.8294661,12 39.8830669,13.9836859 39.9952137,16.4729374 L40.0000372,16.6875055 L40.0000372,32.0713671 C40.0000372,34.5883015 38.0163514,36.6419022 35.5270998,36.754049 L35.3125318,36.7588726 L12.6875055,36.7588726 C10.1705711,36.7588726 8.11697038,34.7751867 8.00482353,32.2859352 L8,32.0713671 L8,16.6875055 C8,14.1705711 9.98368588,12.1169704 12.4729374,12.0048235 L12.6875055,12 L35.3125318,12 Z M35.3125318,14.1875025 L12.6875025,14.1875025 C11.3641438,14.1875025 10.2776338,15.2210781 10.1928304,16.5233716 L10.1875025,16.6875025 L10.1875025,32.0713671 C10.1875025,33.3946986 11.2210781,34.4812363 12.5233716,34.566042 L12.6875025,34.57137 L35.3125318,34.57137 C36.6358933,34.57137 37.7224034,33.5377656 37.8072068,32.2354949 L37.8125347,32.0713671 L37.8125347,16.6875025 C37.8125347,15.3090039 36.6910334,14.1875025 35.3125318,14.1875025 Z M30.359401,16.8445369 C32.9149977,16.8445369 34.9867189,18.916258 34.9867189,21.4718548 C34.9867189,22.7799351 34.4439494,23.961245 33.5713391,24.8028556 C35.0845924,25.8314739 36.0804702,27.5683223 36.0804702,29.5333954 C36.0804702,30.1374899 35.5907821,30.6271467 34.9867189,30.6271467 C34.3826557,30.6271467 33.8929676,30.1374586 33.8929676,29.5333954 C33.8929676,27.7987852 32.6366012,26.3521053 30.9860604,26.0555034 C30.7806234,26.0848782 30.5716815,26.0991727 30.359401,26.0991727 C30.1471205,26.0991727 29.9381786,26.0848782 29.7334854,26.0571994 C28.0825629,26.3516945 26.8258344,27.7985631 26.8258344,29.5333954 C26.8258344,30.1374586 26.3361463,30.6271467 25.7320831,30.6271467 C25.1280199,30.6271467 24.6383319,30.1374586 24.6383319,29.5333954 C24.6383319,27.5686633 25.633864,25.8320768 27.1469804,24.8015685 C26.2746148,23.9607272 25.7320831,22.7796484 25.7320831,21.4718548 C25.7320831,18.916258 27.8038043,16.8445369 30.359401,16.8445369 Z M19.3906383,28.0379562 C19.9947015,28.0379562 20.4843895,28.5276442 20.4843895,29.1317074 C20.4843895,29.7357706 19.9947015,30.2254587 19.3906383,30.2254587 L12.5468803,30.2254587 C11.9428171,30.2254587 11.453129,29.7357706 11.453129,29.1317074 C11.453129,28.5276442 11.9428171,28.0379562 12.5468803,28.0379562 L19.3906383,28.0379562 Z M22.2968916,23.3348257 C22.9009548,23.3348257 23.3906429,23.8245138 23.3906429,24.428577 C23.3906429,25.0326402 22.9009548,25.5223282 22.2968916,25.5223282 L12.5468803,25.5223282 C11.9428171,25.5223282 11.453129,25.0326402 11.453129,24.428577 C11.453129,23.8245138 11.9428171,23.3348257 12.5468803,23.3348257 L22.2968916,23.3348257 Z M30.359401,19.0320394 C29.014087,19.0320394 27.9195857,20.1265407 27.9195857,21.4718548 C27.9195857,22.6186682 28.7149286,23.5832231 29.7829905,23.8428954 C29.9726436,23.8221134 30.1649045,23.8123575 30.359401,23.8123575 C30.5538976,23.8123575 30.7461584,23.8221134 30.93572,23.8411615 C32.0038734,23.5832231 32.7992164,22.6186682 32.7992164,21.4718548 C32.7992164,20.1265407 31.7047151,19.0320394 30.359401,19.0320394 Z M22.2968916,18.6316952 C22.9009548,18.6316952 23.3906429,19.1213833 23.3906429,19.7254465 C23.3906429,20.3295097 22.9009548,20.8191978 22.2968916,20.8191978 L12.5468803,20.8191978 C11.9428171,20.8191978 11.453129,20.3295097 11.453129,19.7254465 C11.453129,19.1213833 11.9428171,18.6316952 12.5468803,18.6316952 L22.2968916,18.6316952 Z M39.972229,1.00000912 C43.7439097,0.999716075 46.8433226,3.97675756 46.9948889,7.7453964 L47,8.02778557 L47,14.4166628 L43.1666722,14.4166628 L43.1666722,8.02778557 C43.1666723,6.34421071 41.8607678,4.94984956 40.1812934,4.83969666 L39.972229,4.83333994 L33.5833569,4.83333994 L33.5833569,1.00000912 L39.972229,1.00000912 Z M14.4166935,1 L14.4166935,4.83335011 L8.02780943,4.83335011 C6.34472777,4.83309095 4.95016558,6.13877945 4.83975671,7.81823721 L4.83336779,8.02779276 L4.83336779,14.41667 L1.00004,14.41667 L1.00004,8.02779276 C1.00004,4.25553117 3.97732395,1.15634039 7.74599574,1.00508848 L8.02782136,1 L14.4166935,1 Z"></path>
                </g>
            </g>
        </g>
    </g>
</svg>