<?xml version="1.0" encoding="UTF-8"?>
<svg width="32px" height="32px" viewBox="0 0 32 32" version="1.1" xmlns="http://www.w3.org/2000/svg" xmlns:xlink="http://www.w3.org/1999/xlink">
    <title>icon-签名</title>
    <g id="会员登记" stroke="none" stroke-width="1" fill="none" fill-rule="evenodd">
        <g id="(mobile)-Registration-Form-Temp-Member-wrong" transform="translate(-40.000000, -4204.000000)" fill="#7383A1" fill-rule="nonzero">
            <g id="形状" transform="translate(40.000000, 4204.000000)">
                <path d="M25.9223902,31.8850431 L5.38124129,31.8850431 L5.38124126,31.8850431 C3.49270276,31.8840186 1.96141585,30.3544011 1.95833847,28.4658724 L1.95833847,5.6452655 C1.95833847,3.75689723 3.49101019,2.22236271 5.38124126,2.22236271 L21.3523104,2.22236271 L21.3523104,2.22236271 C21.9827912,2.22236271 22.4938989,2.73347044 22.4938989,3.36395124 C22.493899,3.99443203 21.9827912,4.50553977 21.3523104,4.50553977 L5.38124121,4.50553977 L5.38124124,4.50553977 C4.75275092,4.50858741 4.24372533,5.01678173 4.23965271,5.6452655 L4.23965271,28.4621403 C4.23965271,29.095322 4.75550747,29.6037288 5.38124124,29.6037288 L25.9149258,29.6037288 C26.5481075,29.6037288 27.0565144,29.0934592 27.0565144,28.4621403 L27.0565144,10.2041815 L27.0565144,10.2041817 C27.0565143,9.57421488 27.5672031,9.06352292 28.1971699,9.06352292 C28.8271367,9.06352283 29.3378307,9.57421161 29.3378307,10.2041784 C29.3378307,10.2041784 29.3378307,10.2041784 29.3378307,10.2041784 L29.3378307,28.458405 L29.3378307,28.4584005 C29.3398911,30.3473646 27.8113411,31.8809104 25.9223901,31.8850431 L25.9223902,31.8850431 Z M19.2181116,13.6270976 L19.2181116,13.6270976 C18.9137497,13.6281726 18.6217668,13.5066803 18.408013,13.2900092 L18.4080131,13.2900093 C17.9626632,12.8480936 17.9598837,12.1288204 18.4018,11.6834738 C18.403863,11.6813948 18.405934,11.6793238 18.408013,11.6772608 L29.749419,0.341452977 L29.7494189,0.341453061 C30.1913346,-0.103896862 30.9106078,-0.10667633 31.3559544,0.335239919 C31.3580334,0.337302893 31.3601044,0.339373894 31.3621674,0.341452897 L31.3621674,0.341452896 C31.8075173,0.783368589 31.8102968,1.50264175 31.3683804,1.9479884 C31.3663174,1.95006739 31.3642464,1.95213838 31.3621674,1.95420137 L20.0207614,13.2956074 L20.0207614,13.2956074 C19.8076702,13.5080422 19.5190036,13.6272611 19.2181107,13.6270976 L19.2181116,13.6270976 Z M14.5065049,13.6270843 L7.66256538,13.6270843 L7.66256544,13.6270843 C7.03259864,13.6270843 6.52190667,13.1163956 6.52190667,12.4864288 C6.52190667,11.856462 7.03259536,11.34577 7.66256217,11.34577 C7.66256218,11.34577 7.6625622,11.34577 7.66256221,11.34577 L14.5065017,11.34577 L14.5065017,11.34577 C15.1364685,11.34577 15.6471605,11.8564587 15.6471605,12.4864255 C15.6471605,13.1163923 15.1364718,13.6270843 14.506505,13.6270843 C14.506505,13.6270843 14.5065049,13.6270843 14.5065049,13.6270843 L14.5065049,13.6270843 Z M21.3597748,20.4728899 L7.6606993,20.4728899 L7.66069925,20.4728899 C7.03021846,20.4728899 6.51911072,19.9617822 6.51911072,19.3313014 C6.51911072,18.7008206 7.03021846,18.1897128 7.66069925,18.1897128 L21.3504443,18.1897128 C21.983626,18.1897128 22.4920469,18.6999825 22.4920469,19.3313014 L22.4920469,19.3312999 C22.4951192,19.958687 21.9890213,20.4697882 21.3616342,20.4728899 C21.3597674,20.4728899 21.3579005,20.4728899 21.3560336,20.4728899 L21.3597748,20.4728899 Z"></path>
            </g>
        </g>
    </g>
</svg>