<?xml version="1.0" encoding="UTF-8"?>
<svg width="32px" height="32px" viewBox="0 0 32 32" version="1.1" xmlns="http://www.w3.org/2000/svg" xmlns:xlink="http://www.w3.org/1999/xlink">
    <title>icon-個人資料</title>
    <g id="会员登记" stroke="none" stroke-width="1" fill="none" fill-rule="evenodd">
        <g id="(mobile)-Registration-Form-Temp-Member-wrong" transform="translate(-40.000000, -910.000000)" fill="#7383A1">
            <g id="形状结合" transform="translate(40.000000, 910.000000)">
                <path d="M16,0 C20.7384615,0 24.6153846,3.73333333 24.6153846,8.2962963 C24.6153846,10.9037037 23.3230769,13.2740741 21.3538462,14.8148148 C27.5076923,16.5333333 32,21.9851852 32,28.4444444 C32,30.4 30.3384615,32 28.3076923,32 L3.69230769,32 C1.66153846,32 0,30.4 0,28.4444444 C0,21.9851852 4.49230769,16.5333333 10.6461538,14.8148148 C8.67692308,13.2740741 7.38461538,10.962963 7.38461538,8.2962963 C7.38461538,3.73333333 11.2615385,0 16,0 Z M17.2782369,16.596091 L14.7217631,16.596091 C7.69146006,16.596091 1.93939394,21.9864653 1.93939394,28.5747006 C1.93939394,29.2335242 2.51460055,29.7725616 3.21763085,29.7725616 L28.7823691,29.7725616 C29.4853994,29.7725616 30.0606061,29.2335242 30.0606061,28.5747006 C30.0606061,21.9864653 24.3085399,16.596091 17.2782369,16.596091 Z M16,17.7777778 C16.6769231,17.7777778 17.2307692,18.3111111 17.2307692,18.962963 C17.2307692,19.3777778 17.0461538,19.6740741 16.7384615,19.9111111 L18.4,25.5407407 C18.5230769,25.9555556 18.4,26.3703704 18.0923077,26.6666667 L16.4307692,28.2666667 C16.1846154,28.5037037 15.8153846,28.5037037 15.5692308,28.2666667 L13.9076923,26.6666667 C13.6,26.3703704 13.4769231,25.9555556 13.6,25.5407407 L15.2615385,19.9111111 C14.9538462,19.6740741 14.7692308,19.3777778 14.7692308,18.962963 C14.7692308,18.3111111 15.3230769,17.7777778 16,17.7777778 Z M16,2.23741713 C12.5333333,2.23741713 9.6969697,4.99035831 9.6969697,8.35506419 C9.6969697,11.7197701 12.5333333,14.4727113 16,14.4727113 C19.4666667,14.4727113 22.3030303,11.7197701 22.3030303,8.35506419 C22.3030303,4.99035831 19.4666667,2.23741713 16,2.23741713 Z"></path>
            </g>
        </g>
    </g>
</svg>